<svg xmlns="http://www.w3.org/2000/svg" xmlns:xlink="http://www.w3.org/1999/xlink" width="48" height="48"><defs><linearGradient id="prefix__k"><stop offset="0" stop-color="#fff"/><stop offset="1" stop-color="#fff" stop-opacity="0"/></linearGradient><linearGradient id="prefix__j"><stop offset="0"/><stop offset="1" stop-opacity="0"/></linearGradient><linearGradient id="prefix__i"><stop offset="0" stop-color="#f9f9f9"/><stop offset="1" stop-color="#eeeeec" stop-opacity=".62"/></linearGradient><linearGradient id="prefix__h"><stop offset="0" stop-color="#787b76"/><stop offset=".871" stop-color="#babcb9"/><stop offset="1" stop-color="#787b76"/></linearGradient><linearGradient id="prefix__f"><stop offset="0" stop-color="#fff"/><stop offset="1" stop-color="#fff" stop-opacity="0"/></linearGradient><linearGradient id="prefix__e"><stop offset="0" stop-color="#c00"/><stop offset=".365" stop-color="#ef0000"/><stop offset="1" stop-color="#a00"/></linearGradient><linearGradient id="prefix__g"><stop offset="0" stop-color="#f0f2ef"/><stop offset="1" stop-color="#cdd1c8"/></linearGradient><linearGradient id="prefix__d"><stop offset="0" stop-color="#888a85"/><stop offset="1" stop-color="#2e3436"/></linearGradient><linearGradient id="prefix__c"><stop offset="0" stop-color="#555753"/><stop offset="1" stop-color="#2e3436"/></linearGradient><linearGradient id="prefix__b"><stop offset="0" stop-color="#2e3436"/><stop offset="1" stop-color="#2e3436" stop-opacity="0"/></linearGradient><linearGradient id="prefix__a"><stop offset="0" stop-color="#babdb6"/><stop offset=".133" stop-color="#eeeeec"/><stop offset="1" stop-color="#babdb6"/></linearGradient><linearGradient xlink:href="#prefix__a" id="prefix__u" x1="23.739" y1="4.157" x2="23.739" y2="19.466" gradientUnits="userSpaceOnUse"/><linearGradient xlink:href="#prefix__b" id="prefix__v" x1="23.732" y1="30.057" x2="23.688" y2="22.633" gradientUnits="userSpaceOnUse"/><linearGradient xlink:href="#prefix__c" id="prefix__o" x1="23.938" y1="30.617" x2="23.938" y2="36.358" gradientUnits="userSpaceOnUse"/><linearGradient xlink:href="#prefix__d" id="prefix__p" x1="20.771" y1="32.248" x2="20.563" y2="23.939" gradientUnits="userSpaceOnUse"/><linearGradient xlink:href="#prefix__e" id="prefix__q" x1="14.813" y1="5.624" x2="14.813" y2="9" gradientUnits="userSpaceOnUse"/><linearGradient xlink:href="#prefix__f" id="prefix__r" x1="24.041" y1="5.069" x2="24.041" y2="10.009" gradientUnits="userSpaceOnUse"/><linearGradient xlink:href="#prefix__g" id="prefix__n" x1="13.625" y1="33.125" x2="14.125" y2="24" gradientUnits="userSpaceOnUse"/><linearGradient xlink:href="#prefix__h" id="prefix__m" x1="10.188" y1="20.25" x2="10.188" y2="42.5" gradientUnits="userSpaceOnUse"/><linearGradient xlink:href="#prefix__i" id="prefix__s" x1="24.719" y1="35.959" x2="23.937" y2="17.071" gradientUnits="userSpaceOnUse"/><linearGradient xlink:href="#prefix__j" id="prefix__t" x1="18.313" y1="20.744" x2="18.313" y2="21.814" gradientUnits="userSpaceOnUse"/><filter id="prefix__l" x="-.03" width="1.06" y="-.14" height="1.28"><feGaussianBlur stdDeviation=".52"/></filter></defs><rect width="41.901" height="8.912" x="3" y="39" rx="2.298" ry="2.298" opacity=".282" fill="#2e3436" filter="url(#prefix__l)"/><path d="M10 16.594c-1.18-.045-2.36.978-2.469 2.218-.888 7.288-2.204 14.592-2.875 21.875v3.063c.034 1.58 1.071 2.642 2.219 2.844H41.5c.979-.025 2.065-.704 2.031-2v-3.938l-3.125-21.218c-.254-1.302-1.366-2.685-2.906-2.844H10z" fill="url(#prefix__m)" fill-rule="evenodd" stroke="#555753"/><path d="M10.602 39.625c-1.13-.123-1.929-.864-1.9-2.224l1.9-15.993c.292-1.069.985-1.923 2.079-1.92h21.925c1.086-.032 2.172.72 2.457 1.617l2.415 16.133c.057 1.469-.547 2.32-1.565 2.286l-27.311.1z" fill="url(#prefix__n)" fill-rule="evenodd" stroke="#555753"/><path d="M20.469 20.438l-2.063 12.03h-2.968l8.03 5.157 8.97-5.156h-2.97l-1.874-12.032h-7.125z" fill="url(#prefix__o)" fill-rule="evenodd" stroke="url(#prefix__p)"/><rect width="31.113" height="6.061" x="8.485" y="4.514" rx="5.016" ry="1.985" fill="url(#prefix__q)" stroke="#930000" stroke-linecap="round" stroke-linejoin="round"/><rect width="29.08" height="3.94" x="9.5" y="5.569" rx="1.834" ry="1.278" opacity=".583" fill="none" stroke="url(#prefix__r)" stroke-linecap="round" stroke-linejoin="round"/><path d="M10.593 17.572c-1.119-.042-2.237.915-2.34 2.075L5.469 39.723c.01.125.03.257.059.38v2.863c.032 1.478 1.015 2.442 2.103 2.63h32.848c.928-.022 1.928-.628 1.896-1.84v-3.683c.007-.028.024-.06.03-.087l-.03-.205v-.204h-.03l-2.902-19.375c-.241-1.217-1.296-2.481-2.755-2.63H10.593z" opacity=".245" fill="none" stroke="url(#prefix__s)"/><path d="M10.21 29.956L12.048 22l24.03.058 1.78 8.986-1.177-9.074c-.22-1.002-.751-1.97-1.723-1.945l-21.92-.044c-1.431-.044-1.712.884-2.038 1.989l-.79 7.986z" fill="url(#prefix__t)" fill-rule="evenodd" opacity=".208"/><rect width="7.096" height="25.97" x="20.484" y="3.604" rx="1.076" ry="1.076" fill="url(#prefix__u)" stroke="#888a85" stroke-linecap="round" stroke-linejoin="round"/><rect width="8.132" height="8.043" x="19.976" y="22.014" rx="1.076" ry="1.076" fill="url(#prefix__v)"/><path d="M11.423 41.486h28.11" opacity=".435" fill="none" stroke="#fff" stroke-linecap="round"/><rect width="5.152" height="23.937" x="21.428" y="4.632" rx="1.076" ry="1.076" opacity=".227" fill="none" stroke="#fff" stroke-linecap="round" stroke-linejoin="round"/><g opacity=".62" fill="none" stroke-linecap="round"><path d="M20.438 30.5H27.5" stroke="#888a85"/><path d="M19.961 32.5h8.016" stroke="#888a85" opacity=".681"/><path d="M20.273 31.5h7.454" stroke="#5d5d5c"/><path d="M19.87 33.489h8.271" stroke="#5d5d5c" opacity=".681"/></g><path d="M14.381 31.514h3.138M30.444 31.451h3.138" fill="none" stroke="#fff" stroke-linecap="round"/><path d="M10.022 41.5a.503.516 0 11-1.006 0 .503.516 0 111.006 0z" opacity=".335" fill="#fff"/></svg>